<?xml version="1.0" encoding="UTF-8"?>
<svg version="1.1" xmlns="http://www.w3.org/2000/svg" width="1024" height="1024">
<path d="M0 0 C337.92 0 675.84 0 1024 0 C1024 337.92 1024 675.84 1024 1024 C686.08 1024 348.16 1024 0 1024 C0 686.08 0 348.16 0 0 Z " fill="#FEFEFE" transform="translate(0,0)"/>
<path d="M0 0 C1.15800773 28.78881271 2.1947135 57.56927672 2.65795898 86.37866211 C2.81134406 95.56803262 3.05618448 104.7348975 3.5234375 113.9140625 C4.10642602 125.57031308 4.11300729 137.20686358 4.0625 148.875 C4.05746394 150.94270722 4.05290484 153.01041566 4.04882812 155.078125 C4.03801455 160.0521145 4.020872 165.02604296 4 170 C0.35406967 169.38846933 -2.72573115 168.37897769 -6.08984375 166.85546875 C-7.51393555 166.21061523 -7.51393555 166.21061523 -8.96679688 165.55273438 C-10.43729492 164.87694336 -10.43729492 164.87694336 -11.9375 164.1875 C-12.91396484 163.74857422 -13.89042969 163.30964844 -14.89648438 162.85742188 C-19.90369597 160.5727755 -24.5426919 158.23550791 -29 155 C-21.93235831 164.6486942 -14.84674273 174.27288002 -7.51953125 183.7265625 C-3.00831981 189.56288534 1.4078224 195.47539833 5.79418945 201.40600586 C6.73704618 202.6523941 7.73737368 203.85535347 8.7578125 205.0390625 C10.55259059 207.87232854 10.88926604 210.50607034 11.4375 213.8125 C11.55601318 214.51955078 11.67452637 215.22660156 11.79663086 215.95507812 C13.29932463 225.27963296 14.41779727 234.67070222 15.55444336 244.04614258 C16.31055899 250.16687745 17.12500651 256.17918292 18.56469727 262.17871094 C20.3709176 269.7358639 21.08329927 277.60705938 22.05664062 285.30688477 C23.00731865 292.80931884 23.96937095 300.26706511 25.4375 307.6875 C26.93886341 315.29813471 28.07970663 322.94779125 29.1875 330.625 C29.36659912 331.84791748 29.54569824 333.07083496 29.73022461 334.33081055 C29.89530518 335.49265869 30.06038574 336.65450684 30.23046875 337.8515625 C30.45319458 339.41124756 30.45319458 339.41124756 30.68041992 341.00244141 C31.31689434 346.97236723 31.31689434 346.97236723 31 350 C29.3737793 351.68408203 29.3737793 351.68408203 27.07421875 353.0078125 C26.22456543 353.51320557 25.37491211 354.01859863 24.49951172 354.53930664 C23.57154785 355.06258545 22.64358398 355.58586426 21.6875 356.125 C19.74545194 357.27104852 17.80405851 358.41820699 15.86328125 359.56640625 C14.8779541 360.1402002 13.89262695 360.71399414 12.87744141 361.30517578 C8.64868036 363.79593254 4.5117046 366.42264364 0.375 369.0625 C-1.18981723 370.05383849 -2.7549216 371.04472387 -4.3203125 372.03515625 C-5.09149414 372.52387207 -5.86267578 373.01258789 -6.65722656 373.51611328 C-10.60223194 376.01483594 -14.55133516 378.507066 -18.5 381 C-20.08335267 381.99996939 -21.66668601 382.99996938 -23.25 384 C-26.41666667 386 -29.58333333 388 -32.75 390 C-33.53334717 390.4947583 -34.31669434 390.9895166 -35.1237793 391.49926758 C-36.71113526 392.50178243 -38.29853779 393.50422354 -39.88598633 394.5065918 C-43.78315395 396.96751963 -47.67957101 399.42961712 -51.57421875 401.89453125 C-61.39071818 408.10496966 -71.23197412 414.27466971 -81.08544922 420.42626953 C-90.41135126 426.2510408 -99.70945717 432.11905045 -109 438 C-120.2615927 445.12863174 -131.54585771 452.21904591 -142.85473633 459.27246094 C-150.77421208 464.21840606 -158.65824779 469.21826749 -166.51879883 474.25732422 C-168.18206316 475.32090386 -169.84982951 476.37748263 -171.52246094 477.42626953 C-173.24814913 478.52242504 -174.95339018 479.65116021 -176.64160156 480.80419922 C-183.15415526 485.09363595 -183.15415526 485.09363595 -187.17578125 484.6484375 C-188.10777344 484.10445312 -189.03976562 483.56046875 -190 483 C-191.69189453 482.02933594 -191.69189453 482.02933594 -193.41796875 481.0390625 C-194.67856517 480.2407912 -195.93485553 479.43569244 -197.1875 478.625 C-197.87674561 478.18655762 -198.56599121 477.74811523 -199.27612305 477.29638672 C-200.75564346 476.355009 -202.2335452 475.41108328 -203.70996094 474.46484375 C-206.77862677 472.5019445 -209.86066668 470.56058622 -212.94262695 468.61865234 C-215.3446552 467.10473364 -217.74485553 465.58795701 -220.14453125 464.0703125 C-225.72319761 460.54234642 -231.30411728 457.01795297 -236.88525391 453.49389648 C-240.78265051 451.03278192 -244.67932316 448.57053975 -248.57421875 446.10546875 C-257.30270013 440.58346299 -266.0492527 435.09168396 -274.8125 429.625 C-284.50167749 423.57911394 -294.14775128 417.46834511 -303.77734375 411.328125 C-318.88933769 401.6924576 -334.08128053 392.18511541 -349.28515625 382.6953125 C-351.6389621 381.22545388 -353.99176963 379.75402708 -356.34375 378.28125 C-371.51702671 368.78093318 -386.74662646 359.37109689 -402 350 C-400.12674824 334.89609841 -397.95596323 319.85965409 -395.52050781 304.83642578 C-394.99698112 301.60637415 -394.47856076 298.37553368 -393.9609375 295.14453125 C-392.36896228 285.24073831 -390.73128972 275.34884442 -388.96273804 265.47502136 C-388.07106093 260.47443122 -387.30653828 255.47018599 -386.625 250.4375 C-386.49963867 249.59582275 -386.37427734 248.75414551 -386.24511719 247.88696289 C-385.52477252 243.0246364 -384.9054537 238.17276366 -384.42913818 233.27983093 C-382.64907724 215.44342183 -379.4847453 202.99906404 -367.06689453 189.34619141 C-363.45986263 185.2517458 -360.29279253 180.83056636 -357.0625 176.4375 C-355.88787394 174.87283003 -354.71212484 173.3090024 -353.53515625 171.74609375 C-349.63651069 166.53639924 -345.81550842 161.27074866 -342 156 C-342.89307861 156.41886475 -343.78615723 156.83772949 -344.70629883 157.26928711 C-348.02094817 158.82336527 -351.33661272 160.37526674 -354.65258789 161.92651367 C-356.08743618 162.59812063 -357.52200872 163.27031704 -358.95629883 163.94311523 C-361.01831961 164.91024509 -363.08132375 165.87524867 -365.14453125 166.83984375 C-365.78526077 167.14091537 -366.4259903 167.441987 -367.08613586 167.75218201 C-369.70338757 168.97369784 -372.25662937 170.08554312 -375 171 C-374.58171853 137.3294972 -373.68187787 103.68212954 -372.60116959 70.02710724 C-372.50062422 66.89444872 -372.40071439 63.76177038 -372.3008728 60.62908936 C-372.14012694 55.59736618 -371.97707845 50.56572235 -371.81217003 45.53413391 C-371.75129076 43.67396948 -371.69082637 41.81379141 -371.63083839 39.95359802 C-371.21030795 26.96232222 -370.6495779 13.98182453 -370 1 C-365.92133257 2.88520441 -362.97711691 5.6176208 -359.75 8.6875 C-358.57885512 9.78593522 -357.40698377 10.88359641 -356.234375 11.98046875 C-355.67298828 12.50688965 -355.11160156 13.03331055 -354.53320312 13.57568359 C-352.72261151 15.2576886 -350.87262034 16.88746582 -349 18.5 C-344.88561926 22.05885254 -340.90741962 25.75971408 -336.91796875 29.45703125 C-333.63480115 32.49756291 -330.33323654 35.5142018 -327 38.5 C-322.05409564 42.93370714 -317.17713346 47.4394342 -312.30078125 51.94921875 C-305.63533637 58.11323728 -298.95461098 64.2600674 -292.1875 70.3125 C-287.24414365 74.74639611 -282.40015972 79.28289717 -277.55444336 83.82275391 C-273.07102452 88.01734426 -268.54083067 92.14990741 -263.953125 96.23046875 C-262 98 -262 98 -260.73803711 99.57861328 C-258.26580389 101.60043401 -256.40194823 101.43142263 -253.23828125 101.51171875 C-252.12001953 101.54716797 -251.00175781 101.58261719 -249.84960938 101.61914062 C-248.68236328 101.64169922 -247.51511719 101.66425781 -246.3125 101.6875 C-245.13365234 101.72166016 -243.95480469 101.75582031 -242.74023438 101.79101562 C-239.82691775 101.87357925 -236.91390534 101.94270322 -234 102 C-233.83751238 111.2665317 -233.71328245 120.53257003 -233.6373148 129.80021763 C-233.60084578 134.10406013 -233.55141527 138.40692514 -233.47192383 142.71020508 C-233.39563192 146.86648538 -233.3539621 151.02182813 -233.3358593 155.17875481 C-233.32296616 156.76124769 -233.29778711 158.34369159 -233.2598896 159.92578316 C-232.97556104 172.29202252 -232.97556104 172.29202252 -235.47531128 176.45968628 C-237.22596889 178.24012598 -238.9374138 179.60295883 -241 181 C-242.23908412 182.05091745 -243.46938285 183.11234998 -244.6875 184.1875 C-245.35136719 184.75855469 -246.01523437 185.32960938 -246.69921875 185.91796875 C-249.5688624 188.51477701 -252.28100669 191.24709875 -255 194 C-258.91026003 197.95896325 -262.87358342 201.74828811 -267.1328125 205.3359375 C-269.26510717 207.23626706 -271.17319454 209.29061908 -273.125 211.375 C-275.56591991 213.83971056 -276.71659223 214.90745869 -280.0625 216 C-282.16759468 216 -284.27314642 215.92926964 -286.375 215.8125 C-291.73855894 216.08992546 -295.64125708 217.8520626 -299.6171875 221.47265625 C-303.02293723 225.54223856 -303.72083479 229.26610798 -303.41015625 234.5078125 C-302.59286466 239.47383185 -300.99306313 243.18772357 -297.234375 246.60546875 C-293.38699939 249.30923468 -289.91872698 250.77657618 -285.08203125 250.4140625 C-280.34506007 249.47200069 -275.70591063 248.10426888 -272.578125 244.24609375 C-271.33885778 242.17054224 -271.33885778 242.17054224 -270 239 C-269.67 238.34 -269.34 237.68 -269 237 C-268.68141108 231.96010121 -268.68141108 231.96010121 -269.73071289 227.12573242 C-270 225 -270 225 -268.58813477 223.00463867 C-267.87971436 222.3160376 -267.17129395 221.62743652 -266.44140625 220.91796875 C-265.27254883 219.76651367 -265.27254883 219.76651367 -264.08007812 218.59179688 C-262.83387695 217.40166992 -262.83387695 217.40166992 -261.5625 216.1875 C-260.76650391 215.40568359 -259.97050781 214.62386719 -259.15039062 213.81835938 C-255.49170659 210.24912972 -251.78124175 206.7714562 -247.91015625 203.43359375 C-243.68528597 199.78553715 -239.78237736 195.85766401 -235.875 191.875 C-234.52073145 190.49493586 -233.16400421 189.11727965 -231.8046875 187.7421875 C-231.21671387 187.1426123 -230.62874023 186.54303711 -230.02294922 185.92529297 C-228 184 -228 184 -224.921875 181.85691833 C-222.2598858 179.63211078 -222.02228686 179.10342429 -221.24050903 175.47550964 C-221.20564426 174.10544718 -221.20319669 172.73431206 -221.22705078 171.36401367 C-221.21642105 170.61225861 -221.20579132 169.86050354 -221.19483948 169.08596802 C-221.16683772 166.6126161 -221.18083269 164.14140594 -221.1953125 161.66796875 C-221.1840599 159.94873698 -221.17017817 158.22952057 -221.15377808 156.5103302 C-221.11774405 151.9941655 -221.11736594 147.47867781 -221.12445068 142.96240234 C-221.12536366 138.35046278 -221.09250419 133.73877685 -221.0625 129.12695312 C-221.00864121 120.08448384 -220.99557771 111.04262881 -221 102 C-211.1 102 -201.2 102 -191 102 C-190.8193576 119.62861435 -190.67201473 137.2564381 -190.58550262 154.88572121 C-190.54426448 163.07144954 -190.48805179 171.25656172 -190.39648438 179.44189453 C-190.3167045 186.57692959 -190.26512473 193.71151843 -190.24729204 200.84698713 C-190.23686857 204.62487812 -190.21240606 208.40149267 -190.15415955 212.17897415 C-190.09974721 215.73670927 -190.08312737 219.2926459 -190.09513855 222.8507576 C-190.09189708 224.77498605 -190.04889851 226.6990196 -190.00463867 228.6227417 C-190.08403899 236.94428775 -190.08403899 236.94428775 -192.77174377 240.04206467 C-194.9317627 241.64315796 -194.9317627 241.64315796 -197.08661652 242.86958885 C-200.11063965 244.65615673 -200.95177162 246.72428631 -202 250 C-202.73965909 256.44560067 -201.52699099 261.50395269 -198 267 C-192.96723176 271.19397353 -188.68110435 272.45766986 -182.15625 272.3359375 C-177.34082293 271.58570792 -173.56857441 269.02680963 -170.609375 265.203125 C-167.85457631 260.35312731 -166.89747097 255.49347073 -168 250 C-169.83307596 245.59281736 -171.58266151 242.6041439 -176.06240845 240.69464111 C-179.50626336 237.53560662 -179.46959892 236.84156143 -179.7215271 232.355896 C-179.7389684 229.92446379 -179.72286303 227.49266042 -179.68115234 225.06152344 C-179.67945948 223.72104977 -179.68041072 222.38057053 -179.68380737 221.0401001 C-179.68552907 217.40360156 -179.65025344 213.76829024 -179.60836363 210.13206768 C-179.5708573 206.331128 -179.5673314 202.53016112 -179.56021118 198.72906494 C-179.54156185 191.53241105 -179.49232431 184.33630399 -179.43211424 177.13989091 C-179.36505129 168.94656103 -179.33206076 160.75320503 -179.30194163 152.55966902 C-179.23922479 135.7061297 -179.13368877 118.85312266 -179 102 C-178.18726624 102.01189865 -177.37453247 102.0237973 -176.53717041 102.03605652 C-168.82907793 102.13900463 -161.1233091 102.18813846 -153.41460037 102.17878246 C-149.45240311 102.17581942 -145.49248268 102.19271869 -141.53076172 102.25708008 C-137.69777173 102.31858491 -133.86805333 102.32521204 -130.03472137 102.29583168 C-128.58200632 102.29394687 -127.12912478 102.31092363 -125.67688751 102.34822655 C-118.34290922 102.52441648 -112.50541955 102.07922793 -106.80379868 97.12902546 C-104.42071756 94.84509414 -102.2097104 92.45299529 -100 90 C-98.86700908 88.92873626 -97.72194165 87.86976155 -96.5546875 86.8359375 C-95.67039062 86.02382813 -94.78609375 85.21171875 -93.875 84.375 C-89.46234663 80.32621727 -85.01950135 76.31237301 -80.5625 72.3125 C-77.17601679 69.25640539 -73.81755186 66.17014388 -70.45874023 63.08374023 C-67.34366875 60.22397796 -64.21148325 57.38484641 -61.0625 54.5625 C-57.17629402 51.07551903 -53.33157193 47.54668015 -49.5 44 C-44.8791711 39.7227471 -40.2249437 35.48690078 -35.53515625 31.28515625 C-32.63086706 28.66726846 -29.75231028 26.0224487 -26.875 23.375 C-23.01586471 19.82609822 -19.11819903 16.33159282 -15.15234375 12.90234375 C-13.37407775 11.3306277 -11.62229343 9.73886828 -9.87890625 8.12890625 C-9.33169922 7.62359375 -8.78449219 7.11828125 -8.22070312 6.59765625 C-7.12748841 5.58556347 -6.03629097 4.57128673 -4.94726562 3.5546875 C-1.10880055 0 -1.10880055 0 0 0 Z " fill="#3E4245" transform="translate(697,269)"/>
<path d="M0 0 C4.35823588 1.97293053 7.14604378 4.19343275 9.79296875 8.265625 C10.20546875 8.86375 10.61796875 9.461875 11.04296875 10.078125 C12.69507496 14.89676811 12.12482284 19.13341692 10.73046875 23.890625 C8.41074851 27.93142799 5.6842945 30.70578903 1.79296875 33.265625 C1.13296875 33.265625 0.47296875 33.265625 -0.20703125 33.265625 C-0.58723976 41.85876446 -0.72588381 50.43397536 -0.27734375 59.02734375 C-0.25860199 59.75093582 -0.23986023 60.47452789 -0.22055054 61.220047 C0.1059577 66.19451517 1.5673539 68.88640553 4.9500885 72.52694702 C7.2514323 74.49714651 9.77637045 75.69825765 12.48876953 77.01123047 C17.20390276 79.57812542 21.27761092 83.13653333 25.48046875 86.453125 C27.2803724 87.82878626 29.08366294 89.2000296 30.890625 90.56640625 C31.73512207 91.20529785 32.57961914 91.84418945 33.44970703 92.50244141 C38.8151427 96.53965504 44.20502254 100.54032752 49.79296875 104.265625 C50.15132141 106.71908569 50.15132141 106.71908569 50.13012695 109.84521484 C50.13076897 111.59745865 50.13076897 111.59745865 50.13142395 113.38510132 C50.11899155 114.65278351 50.10655914 115.9204657 50.09375 117.2265625 C50.0994351 119.20847091 50.10515468 121.19037994 50.11292553 123.17228127 C50.12780093 128.07036378 50.11133637 132.96823935 50.07788086 137.86621094 C50.06031262 140.61181472 50.05860569 143.35658645 50.07377625 146.10220337 C50.08690997 148.69088211 50.07557989 151.2798211 50.03767395 153.86825562 C50.06497045 157.11160227 50.13232901 160.09004526 50.79296875 163.265625 C53.51231322 166.01763101 53.51231322 166.01763101 56.79296875 167.265625 C60.84935229 172.63759239 62.34638129 176.51399195 61.79296875 183.265625 C59.68287346 189.41242432 56.5814581 193.02179869 50.97265625 196.34375 C46.76463294 198.12348746 42.26462913 197.797811 37.79296875 197.265625 C34.35546875 195.515625 34.35546875 195.515625 31.79296875 193.265625 C30.67921875 192.3375 30.67921875 192.3375 29.54296875 191.390625 C26.07313385 187.17725405 25.36894222 182.52467793 25.55078125 177.2109375 C26.2897046 171.27571443 29.82678017 168.01146059 34.171875 164.3671875 C35.79296875 163.265625 35.79296875 163.265625 37.79296875 163.265625 C38.05751696 156.07950426 38.19377337 148.89878929 38.24462891 141.70800781 C38.2765814 139.26735363 38.3369664 136.82688849 38.42724609 134.38769531 C39.36528668 121.19939743 39.36528668 121.19939743 35.31860352 109.05474854 C31.664677 105.30024962 27.41626215 102.75883642 22.79907227 100.34545898 C20.02433184 98.8518875 17.57744607 97.00833953 15.07421875 95.1015625 C12.6422958 93.33890474 10.2081731 91.57994434 7.765625 89.83203125 C6.98058594 89.26097656 6.19554687 88.68992187 5.38671875 88.1015625 C4.69255859 87.60188965 3.99839844 87.1022168 3.28320312 86.58740234 C2.79142578 86.15121582 2.29964844 85.7150293 1.79296875 85.265625 C1.79296875 84.605625 1.79296875 83.945625 1.79296875 83.265625 C1.13296875 83.265625 0.47296875 83.265625 -0.20703125 83.265625 C-0.21658372 99.75548657 -0.19201152 116.2448885 -0.12675285 132.7346077 C-0.09724899 140.39101542 -0.07893551 148.04714531 -0.08691406 155.70361328 C-0.09383945 162.37661599 -0.07982128 169.04918878 -0.04059517 175.72208571 C-0.02055502 179.25587726 -0.01104297 182.78899357 -0.02660751 186.32282257 C-0.04358594 190.26672298 -0.01380766 194.20951193 0.02001953 198.15332031 C0.00779861 199.326483 -0.0044223 200.49964569 -0.01701355 201.70835876 C0.02916101 204.68492248 0.11082913 207.36803759 0.79296875 210.265625 C3.54778082 213.01605271 3.54778082 213.01605271 6.79296875 214.265625 C10.44320982 218.15355618 12.11640145 222.06150271 12.29296875 227.390625 C11.94452312 233.3783881 10.28380181 236.83961077 5.91796875 241.015625 C0.36118941 245.01650612 -4.4101402 246.22801665 -11.20703125 245.265625 C-16.43225879 242.65301123 -20.57614997 238.52738755 -23.20703125 233.265625 C-23.71432775 227.71031252 -23.96963547 222.84732264 -21.51953125 217.765625 C-19.22057533 215.28026725 -17.00236903 213.17822453 -14.20703125 211.265625 C-13.54703125 211.265625 -12.88703125 211.265625 -12.20703125 211.265625 C-12.20703125 152.525625 -12.20703125 93.785625 -12.20703125 33.265625 C-13.85703125 32.605625 -15.50703125 31.945625 -17.20703125 31.265625 C-21.75515172 26.50596405 -23.89806668 22.95803056 -24.64453125 16.453125 C-24.48439265 11.46056851 -22.46000794 7.96864943 -19.20703125 4.265625 C-13.46060502 -0.89366638 -7.39656986 -2.46115953 0 0 Z " fill="#03F9C3" transform="translate(561.20703125,403.734375)"/>
<path d="M0 0 C5.47398271 2.43106833 9.40870644 5.53213286 12 11 C12.8086749 16.82100218 12.84476646 22.21660414 10.3125 27.5625 C6.36663657 31.72165335 3.19849427 34.84508717 -2.7421875 35.1328125 C-3.77601563 35.13023437 -4.80984375 35.12765625 -5.875 35.125 C-7.41800781 35.12886719 -7.41800781 35.12886719 -8.9921875 35.1328125 C-12 35 -12 35 -14.39453125 34.203125 C-18.61136116 33.87437664 -21.44956131 36.3565975 -24.8125 38.625 C-25.61872803 39.15134033 -26.42495605 39.67768066 -27.25561523 40.2199707 C-29.11291133 41.43543588 -30.96551965 42.65808171 -32.81445312 43.88623047 C-36.35064459 46.23267021 -39.90066864 48.55720599 -43.453125 50.87890625 C-48.94300312 54.46953352 -54.42695328 58.06902852 -59.90625 61.67578125 C-67.11669127 66.4216223 -74.33653924 71.15281931 -81.5625 75.875 C-82.61244141 76.56118408 -83.66238281 77.24736816 -84.74414062 77.9543457 C-87.82912534 79.97002622 -90.91448513 81.98513113 -94 84 C-95.01449219 84.66257812 -96.02898437 85.32515625 -97.07421875 86.0078125 C-107.56870374 92.86080526 -118.06658814 99.70817134 -128.59985352 106.50146484 C-129.22819092 106.90703613 -129.85652832 107.31260742 -130.50390625 107.73046875 C-131.09961426 108.10864746 -131.69532227 108.48682617 -132.30908203 108.87646484 C-133.93791476 109.95874729 -135.48581897 111.15989739 -137.02734375 112.36328125 C-141.00468209 114.55316924 -142.60449787 114.08451795 -147 113 C-150.12943766 111.37078138 -152.97329447 109.39046434 -155.859375 107.3671875 C-156.70960739 106.78685257 -157.55983978 106.20651764 -158.43583679 105.6085968 C-161.2150947 103.70860447 -163.98222818 101.79167567 -166.75 99.875 C-169.64901772 97.88855105 -172.55128667 95.90691899 -175.45384216 93.92564392 C-177.42042267 92.58301478 -179.38604477 91.23898079 -181.35072327 89.89356995 C-190.63653901 83.54058429 -200.01939708 77.34206045 -209.4375 71.1875 C-210.85192523 70.26226392 -212.26631435 69.33697262 -213.68066406 68.41162109 C-215.65154097 67.12223857 -217.6224633 65.83292743 -219.59384155 64.54431152 C-225.42043618 60.73274474 -231.21369724 56.87247828 -237 53 C-238.26541675 52.15593771 -239.53100447 51.31213159 -240.796875 50.46875 C-243.53125 48.64583333 -246.265625 46.82291667 -249 45 C-247.07712966 40.70621187 -244.37521131 38.22846299 -241 35 C-237.1136165 36.39821978 -233.96675988 38.22134567 -230.5703125 40.5625 C-229.01775757 41.62658081 -229.01775757 41.62658081 -227.43383789 42.7121582 C-226.33088866 43.47476741 -225.22794276 44.23738144 -224.125 45 C-222.98794659 45.78077164 -221.85049286 46.5609606 -220.71264648 47.34057617 C-219.01988547 48.50040821 -217.32730239 49.66048413 -215.63591003 50.8223114 C-211.46664799 53.68584962 -207.2770681 56.51618252 -203.0625 59.3125 C-202.48661133 59.6950293 -201.91072266 60.07755859 -201.31738281 60.47167969 C-200.15500947 61.2433393 -198.99241161 62.01466083 -197.82958984 62.78564453 C-194.34082936 65.10124297 -190.85851609 67.42652309 -187.375 69.75 C-185.8594003 70.76045461 -184.34377479 71.77087052 -182.828125 72.78125 C-172.609375 79.59375 -172.609375 79.59375 -169.86157227 81.42602539 C-168.05266634 82.63169371 -166.24326713 83.83662228 -164.43334961 85.04077148 C-160.65856073 87.55317658 -156.88716852 90.06878629 -153.14453125 92.62890625 C-152.08621094 93.34949219 -151.02789063 94.07007813 -149.9375 94.8125 C-148.62072266 95.71935547 -148.62072266 95.71935547 -147.27734375 96.64453125 C-144.32776078 98.47681681 -144.32776078 98.47681681 -141 99 C-138.73053719 97.76154826 -136.77280746 96.50256478 -134.6875 95 C-133.33844022 94.06467214 -131.98809484 93.13119684 -130.63671875 92.19921875 C-129.52756104 91.42843994 -129.52756104 91.42843994 -128.39599609 90.64208984 C-123.98380915 87.61820871 -119.48680924 84.72395578 -115 81.8125 C-112.99728794 80.50797813 -110.99468504 79.20328865 -108.9921875 77.8984375 C-105.18678603 75.42155622 -101.3793137 72.94790353 -97.5703125 70.4765625 C-88.94026624 64.87057412 -80.33303183 59.23440468 -71.77734375 53.515625 C-71.05897339 53.03561539 -70.34060303 52.55560577 -69.60046387 52.06105042 C-66.05479612 49.69091953 -62.51135276 47.31755637 -58.97119141 44.93920898 C-51.52617528 39.94831214 -44.02389842 35.07556749 -36.39894104 30.36320496 C-35.77929977 29.98013687 -35.15965851 29.59706879 -34.52124023 29.20239258 C-33.92963104 28.83707428 -33.33802185 28.47175598 -32.72848511 28.09536743 C-31.01102479 27.00698658 -29.33830502 25.86741829 -27.66430664 24.71362305 C-25 23 -25 23 -23 23 C-23.04640625 22.27554688 -23.0928125 21.55109375 -23.140625 20.8046875 C-23.37133511 14.62495234 -23.3343502 10.79059759 -19 6 C-12.89661133 0.28585805 -8.34203753 -1.16502764 0 0 Z " fill="#03F6C1" transform="translate(690,583)"/>
<path d="M0 0 C4.37917401 2.53531127 6.81412969 5.84247716 8.6875 10.5 C8.78281082 12.12434372 8.8248734 13.75251138 8.8190918 15.37963867 C9.07679862 18.32716686 9.27035046 19.98061318 11.13589478 22.30337524 C13.2251232 23.97744268 15.36559924 25.3955307 17.64453125 26.80078125 C18.47864532 27.35197632 19.3127594 27.90317139 20.17214966 28.47106934 C22.9291479 30.28266201 25.71341905 32.04682111 28.5 33.8125 C30.43179192 35.07005858 32.36153393 36.33077123 34.28930664 37.59448242 C38.33297748 40.23863935 42.38777321 42.86434762 46.45214844 45.4765625 C52.6379139 49.45757018 58.78094384 53.50097949 64.9140625 57.5625 C66.89607056 58.87460355 68.87808544 60.18669678 70.86010742 61.4987793 C71.81968353 62.13407562 72.77925964 62.76937195 73.76791382 63.42391968 C76.56423984 65.27233655 79.36385052 67.11563221 82.1652832 68.95629883 C83.48169044 69.82142342 83.48169044 69.82142342 84.82469177 70.70402527 C86.51403427 71.8119497 88.20502888 72.91736004 89.89784241 74.01997375 C93.44643988 76.33638378 96.96246422 78.66877328 100.38720703 81.16552734 C101.43634277 81.91914551 102.48547852 82.67276367 103.56640625 83.44921875 C104.42951416 84.09592529 105.29262207 84.74263184 106.18188477 85.40893555 C108.73133483 86.82452917 108.73133483 86.82452917 111.76147461 85.71020508 C112.72706299 85.3108374 113.69265137 84.91146973 114.6875 84.5 C121.82161203 83.93380063 126.79145434 85.06468888 132.4375 89.8125 C136.52575622 94.69569493 138.35060305 98.8381995 138.09375 105.1953125 C137.07408733 110.97993725 133.68215521 115.11897108 129 118.5 C124.32304744 121.10320945 119.91598414 121.42116849 114.6875 120.5 C109.05403147 118.48268174 105.65025869 114.71305694 102.58984375 109.703125 C101.45370622 106.92917883 101.4913843 104.73685946 101.5625 101.75 C101.58054687 100.76515625 101.59859375 99.7803125 101.6171875 98.765625 C101.64039063 98.01796875 101.66359375 97.2703125 101.6875 96.5 C100.965625 96.23703125 100.24375 95.9740625 99.5 95.703125 C96.61220197 94.46778918 94.27790773 93.02319577 91.6875 91.25 C90.64207031 90.54101562 89.59664063 89.83203125 88.51953125 89.1015625 C87.92350098 88.69583008 87.3274707 88.29009766 86.71337891 87.87207031 C82.61740308 85.09798208 78.49316892 82.36597939 74.375 79.625 C72.69130547 78.50275536 71.00771295 77.38035764 69.32421875 76.2578125 C67.98145874 75.36304199 67.98145874 75.36304199 66.61157227 74.45019531 C64.56679954 73.08644441 62.52310432 71.72107717 60.48022461 70.35449219 C52.89843652 65.28553831 45.29019046 60.25795235 37.66796875 55.25 C36.70861923 54.61939667 35.74926971 53.98879333 34.760849 53.33908081 C30.77916914 50.72197517 26.79739458 48.10502494 22.81323242 45.49169922 C19.86755448 43.55912265 16.92384465 41.62358024 13.98046875 39.6875 C13.07540085 39.09485352 12.17033295 38.50220703 11.23783875 37.89160156 C9.98931877 37.06934082 9.98931877 37.06934082 8.71557617 36.23046875 C7.98360519 35.74989014 7.25163422 35.26931152 6.4974823 34.77416992 C4.6875 33.5 4.6875 33.5 2.6875 31.5 C0.42475212 31.85355436 -1.26338852 32.47544426 -3.3125 33.5 C-9.89111921 34.27525816 -15.22186417 34.04556755 -20.65234375 30.03125 C-24.47351559 26.50678091 -26.03559893 23.64598328 -26.6875 18.59375 C-26.87844492 13.77239088 -26.73916008 10.38492462 -24.625 6 C-17.79280668 -1.38615494 -9.61981632 -4.15151769 0 0 Z " fill="#92F854" transform="translate(348.3125,584.5)"/>
<path d="M0 0 C8.20887977 4.58829662 16.08696093 9.60258582 23.95263672 14.74902344 C30.23225216 18.85648867 36.54079018 22.91474887 42.875 26.9375 C43.77565186 27.50960205 44.67630371 28.0817041 45.60424805 28.67114258 C47.44741636 29.84142116 49.29076121 31.01142176 51.13427734 32.18115234 C56.15423945 35.36727585 61.17084491 38.55867309 66.1875 41.75 C67.1264209 42.34675537 68.0653418 42.94351074 69.03271484 43.55834961 C69.90234863 44.11143799 70.77198242 44.66452637 71.66796875 45.234375 C72.43391357 45.72131836 73.1998584 46.20826172 73.98901367 46.70996094 C75.67087651 47.7888687 77.33741765 48.89161177 79 50 C82.01317587 50.33005636 82.01317587 50.33005636 85.4909668 50.31884766 C86.47185776 50.33391609 86.47185776 50.33391609 87.4725647 50.34928894 C89.63144054 50.38015014 91.79019221 50.39716381 93.94921875 50.4140625 C95.4470985 50.43277183 96.94496768 50.45234507 98.44282532 50.4727478 C102.3833697 50.52410001 106.32394827 50.56370905 110.26464844 50.60089111 C114.28654457 50.64091149 118.30829813 50.69201278 122.33007812 50.7421875 C130.21995473 50.83898331 138.10990183 50.92337626 146 51 C146.28101563 50.22011719 146.56203125 49.44023438 146.8515625 48.63671875 C148.80043338 44.16227031 152.63388959 41.89089912 157 40 C163.39225418 38.96666568 168.74886627 40.24755585 174 44 C177.94565277 47.83795505 180.14999117 51.09969966 180.3125 56.625 C180.22384138 62.76904222 178.60266448 66.94372828 174.6328125 71.60546875 C170.08332227 75.64568769 165.06374947 75.78259359 159.171875 75.55859375 C154.39117924 74.71667319 151.17600904 72.63448804 148 69 C147.31341027 67.67681567 146.64396701 66.34444364 146 65 C145.16078506 65.01189865 144.32157013 65.0237973 143.45692444 65.03605652 C135.47098328 65.13929698 127.48683988 65.18811084 119.50020695 65.17878246 C115.39581518 65.1758281 111.29362563 65.19247079 107.18969727 65.25708008 C73.1062269 65.76671325 73.1062269 65.76671325 60.47940063 54.30856323 C58.46359566 52.52553826 56.26385116 51.16921421 53.95703125 49.79296875 C53.26810791 49.35927979 52.57918457 48.92559082 51.86938477 48.47875977 C51.19061279 48.05264404 50.51184082 47.62652832 49.8125 47.1875 C48.21335802 46.17997893 46.61440783 45.17215339 45.015625 44.1640625 C44.20029297 43.65004883 43.38496094 43.13603516 42.54492188 42.60644531 C27.62140016 33.18618698 12.77518464 23.65117972 -2 14 C-1.85795259 12.41632253 -1.71119847 10.83306682 -1.5625 9.25 C-1.48128906 8.36828125 -1.40007812 7.4865625 -1.31640625 6.578125 C-1.03761535 4.30649548 -0.61209423 2.20148177 0 0 Z " fill="#93F655" transform="translate(310,525)"/>
<path d="M0 0 C4.29 0 8.58 0 13 0 C13.37306138 9.7791675 13.65614614 19.55660729 13.82899475 29.34147739 C13.91202373 33.88705199 14.02429249 38.42771339 14.20703125 42.97045898 C15.45340469 74.77763112 15.45340469 74.77763112 9.61328125 82.56591797 C6.43896773 85.86470564 2.97682039 88.3395012 -0.95089722 90.66412354 C-4.44724506 92.94350593 -7.16169072 95.96892663 -10 99 C-13.27246334 102.33141018 -16.57236889 105.59016128 -20.125 108.625 C-23.53319596 111.54945202 -26.82469176 114.57654427 -30.0625 117.6875 C-30.56475098 118.15172363 -31.06700195 118.61594727 -31.58447266 119.09423828 C-33.16010686 120.57543582 -33.16010686 120.57543582 -35 123 C-34.93989665 125.12066988 -34.93989665 125.12066988 -34 127 C-33.46877783 133.37466602 -34.36645424 137.67395573 -38 143 C-42.41763974 147.41763974 -46.7517388 148.74616406 -52.875 149.4375 C-57.79327502 149.29617026 -61.31500126 147.1375599 -65 144 C-69.16032334 138.66625213 -70.48987158 134.29855878 -70.40234375 127.63671875 C-69.5861729 122.28802628 -66.38758351 118.84140428 -62.20703125 115.6171875 C-58.16526653 113.23379634 -55.15505161 112.8977665 -50.5 113.1875 C-46.15084315 113.3494686 -44.10687097 112.8801475 -40.8125 110 C-39.51665641 108.69096045 -38.24604921 107.35652368 -37 106 C-35.67059013 104.66275471 -34.33722247 103.32943282 -33 102 C-32.33484375 101.32453125 -31.6696875 100.6490625 -30.984375 99.953125 C-29.1322053 98.13012333 -27.2282482 96.43396334 -25.25 94.75 C-21.13638456 91.21941667 -17.34496288 87.40553976 -13.56347656 83.52636719 C-13.0887793 83.04329102 -12.61408203 82.56021484 -12.125 82.0625 C-11.43491852 81.34166985 -11.43491852 81.34166985 -10.730896 80.60627747 C-9 79 -9 79 -6.97998047 77.74742126 C-3.11792388 75.16686882 -1.26312548 73.20925776 -0.25830078 68.59133911 C0.12636331 64.2532382 0.05722731 59.91681043 0 55.56640625 C0.00752529 53.96213315 0.01856523 52.35787303 0.03295898 50.75364685 C0.06130441 46.54952955 0.0421628 42.34694147 0.01287842 38.1428833 C-0.00856783 33.84580675 0.01524095 29.54900183 0.03515625 25.25195312 C0.06754284 16.83413597 0.04554071 8.41775663 0 0 Z " fill="#92F857" transform="translate(463,371)"/>
<path d="M0 0 C3.96 0 7.92 0 12 0 C11.99920441 1.69493591 11.99840881 3.38987183 11.99758911 5.13616943 C11.99399122 21.08737641 12.0213391 37.03824509 12.0802784 52.98934555 C12.10978499 61.19055591 12.12809474 69.39150682 12.12011719 77.59277344 C12.11319285 84.74040373 12.12720383 91.8876326 12.16643608 99.03516412 C12.18647994 102.82045268 12.19598419 106.6051107 12.18042374 110.39043427 C12.16610934 113.95306754 12.17977497 117.51449515 12.21495247 121.07697296 C12.22672748 123.00849131 12.20879117 124.94011903 12.1900177 126.87158203 C12.23581479 130.03195467 12.31482416 132.91465389 13 136 C15.74026768 138.80749959 15.74026768 138.80749959 19 140 C22.36822701 143.65805119 24.31226495 147.5039278 24.5625 152.5 C24.18531694 158.56636085 21.87846939 163.21545408 17.5 167.375 C16.2625 168.179375 16.2625 168.179375 15 169 C14.1028125 169.61875 14.1028125 169.61875 13.1875 170.25 C8.29889153 171.92609433 4.09607464 171.35297319 -0.6875 169.8125 C-6.80347419 166.46602356 -9.86234535 162.63798022 -12 156 C-12.75348124 150.06633525 -11.85190768 146.87687359 -8.6796875 141.859375 C-7 140 -7 140 -3.94332886 138.69244385 C-0.49851178 135.5412579 -0.52380861 134.83626678 -0.24050903 130.355896 C-0.20527832 127.92468959 -0.20341853 125.49287025 -0.22705078 123.06152344 C-0.21887881 121.7210309 -0.2080757 120.3805522 -0.19483948 119.0401001 C-0.16638883 115.40380289 -0.17475924 111.7684107 -0.18970728 108.13206768 C-0.19908206 104.33097042 -0.17464164 100.53009484 -0.15377808 96.72906494 C-0.11942027 89.53258958 -0.11550292 82.33643191 -0.12250316 75.13989091 C-0.12899244 66.94638706 -0.10157549 58.75310666 -0.07130075 50.55966902 C-0.00978807 33.70640148 0.00791088 16.85337284 0 0 Z " fill="#95FB56" transform="translate(506,371)"/>
<path d="M0 0 C0.66 0 1.32 0 2 0 C2 2.97 2 5.94 2 9 C1.01 9.33 0.02 9.66 -1 10 C-0.67 6.7 -0.34 3.4 0 0 Z " fill="#57585A" transform="translate(301,578)"/>
<path d="M0 0 C3.45925163 1.2491742 6.14693203 2.67527795 9 5 C7.68 5 6.36 5 5 5 C4.67 5.66 4.34 6.32 4 7 C0 2.25 0 2.25 0 0 Z " fill="#D3D2D0" transform="translate(668,424)"/>
</svg>
